<svg xmlns="http://www.w3.org/2000/svg" viewBox="0 0 210.2 73.29"><defs><style>.cls-1{fill:#fff;}</style></defs><title>logo_white</title><g id="Layer_2" data-name="Layer 2"><g id="Layer_1-2" data-name="Layer 1"><path class="cls-1" d="M25.76,35.36V18.27h3.67a5.37,5.37,0,0,1,1.78.27,3.35,3.35,0,0,1,1.39.93A3.62,3.62,0,0,1,33.46,21a9.82,9.82,0,0,1,.25,2.44,11.62,11.62,0,0,1-.14,1.94A4,4,0,0,1,33,26.91a3.66,3.66,0,0,1-1.34,1.31,4.59,4.59,0,0,1-2.21.47H28.21v6.67Zm2.45-14.78v5.8h1.17a2.61,2.61,0,0,0,1.16-.21,1.45,1.45,0,0,0,.6-.6,2.28,2.28,0,0,0,.22-.89c0-.35,0-.74,0-1.18s0-.78,0-1.14a2.45,2.45,0,0,0-.22-.94,1.37,1.37,0,0,0-.58-.63,2.31,2.31,0,0,0-1.1-.21Z"/><path class="cls-1" d="M35.38,22.3a4.23,4.23,0,0,1,.37-1.82,3.58,3.58,0,0,1,1-1.32,4,4,0,0,1,1.3-.77,4.48,4.48,0,0,1,1.48-.26,4.42,4.42,0,0,1,1.47.26,4.37,4.37,0,0,1,1.34.77,4,4,0,0,1,.93,1.32,4.38,4.38,0,0,1,.36,1.82v9a4.36,4.36,0,0,1-.36,1.85,3.91,3.91,0,0,1-.93,1.27,4.23,4.23,0,0,1-1.34.79,4.18,4.18,0,0,1-1.47.26A4.24,4.24,0,0,1,38,35.24a3.85,3.85,0,0,1-1.3-.79,3.48,3.48,0,0,1-1-1.27,4.21,4.21,0,0,1-.37-1.85Zm2.45,9a1.63,1.63,0,0,0,.5,1.31,1.71,1.71,0,0,0,1.16.42,1.73,1.73,0,0,0,1.16-.42,1.63,1.63,0,0,0,.5-1.31v-9a1.61,1.61,0,0,0-.5-1.3,1.73,1.73,0,0,0-1.16-.42,1.71,1.71,0,0,0-1.16.42,1.61,1.61,0,0,0-.5,1.3Z"/><path class="cls-1" d="M45.75,35.36V18.27h3.94q4.32,0,4.32,5a6.38,6.38,0,0,1-.47,2.57,3.63,3.63,0,0,1-1.64,1.7l2.64,7.8H52l-2.28-7.3H48.2v7.3ZM48.2,20.58V25.9h1.39a2.44,2.44,0,0,0,1-.18,1.46,1.46,0,0,0,.61-.51,2.62,2.62,0,0,0,.26-.83,9.32,9.32,0,0,0,0-2.28,2.19,2.19,0,0,0-.29-.85,1.94,1.94,0,0,0-1.73-.67Z"/><path class="cls-1" d="M57.15,35.36V20.58H54.32V18.27h8.11v2.31H59.6V35.36Z"/><path class="cls-1" d="M61.09,35.36,64.9,18.27h2l3.82,17.09H68.31l-.72-3.67H64.26l-.72,3.67Zm6-6-1.2-6.19h0l-1.2,6.19Z"/><path class="cls-1" d="M72,35.36V18.27h2.45V32.91h4.85v2.45Z"/><path class="cls-1" d="M85.3,35.36V18.27h3.63a4.23,4.23,0,0,1,3.2,1.15,4.57,4.57,0,0,1,1.09,3.27v8a4.75,4.75,0,0,1-1.16,3.54,4.59,4.59,0,0,1-3.35,1.14Zm2.45-14.78V33.06h1.13a1.81,1.81,0,0,0,1.46-.52,2.47,2.47,0,0,0,.44-1.62V22.69a2.61,2.61,0,0,0-.41-1.56,1.74,1.74,0,0,0-1.49-.55Z"/><path class="cls-1" d="M95.53,35.36V18.27h7.3v2.31H98v5h4.22V27.9H98v5h4.85v2.45Z"/><path class="cls-1" d="M108.94,35.36V18.27h2.45V35.36Z"/><path class="cls-1" d="M113.67,35.36V18.27H116l3.7,10.3h0V18.27h2.45V35.36h-2.31l-3.74-10.27h0V35.36Z"/><path class="cls-1" d="M124.42,35.36V18.27h7.3v2.31h-4.85v5.18h4.23v2.3h-4.23v7.3Z"/><path class="cls-1" d="M133.16,22.3a4.38,4.38,0,0,1,.36-1.82,3.82,3.82,0,0,1,1-1.32,4,4,0,0,1,1.31-.77,4.31,4.31,0,0,1,3,0,4.32,4.32,0,0,1,1.33.77,3.9,3.9,0,0,1,.94,1.32,4.38,4.38,0,0,1,.36,1.82v9a4.36,4.36,0,0,1-.36,1.85,3.79,3.79,0,0,1-.94,1.27,4.19,4.19,0,0,1-1.33.79,4.31,4.31,0,0,1-3,0,3.89,3.89,0,0,1-1.31-.79,3.71,3.71,0,0,1-1-1.27,4.36,4.36,0,0,1-.36-1.85Zm2.45,9a1.63,1.63,0,0,0,.49,1.31,1.83,1.83,0,0,0,2.33,0,1.63,1.63,0,0,0,.49-1.31v-9a1.6,1.6,0,0,0-.49-1.3,1.83,1.83,0,0,0-2.33,0,1.6,1.6,0,0,0-.49,1.3Z"/><path class="cls-1" d="M143.53,35.36V18.27h3.93q4.32,0,4.32,5a6.38,6.38,0,0,1-.46,2.57,3.65,3.65,0,0,1-1.65,1.7l2.64,7.8h-2.59l-2.28-7.3H146v7.3ZM146,20.58V25.9h1.39a2.47,2.47,0,0,0,1-.18,1.37,1.37,0,0,0,.6-.51,2.19,2.19,0,0,0,.26-.83,8.16,8.16,0,0,0,0-2.28,2.19,2.19,0,0,0-.28-.85,2,2,0,0,0-1.73-.67Z"/><path class="cls-1" d="M153.75,35.36V18.27h2.35l3.15,9.05h0l3.13-9h2.37V35.36h-2.45V25h-.05l-2.42,7.34h-1.22L156.25,25h-.05V35.36Z"/><path class="cls-1" d="M166,35.36l3.82-17.09h2l3.81,17.09h-2.45l-.71-3.67h-3.34l-.72,3.67Zm6-6-1.2-6.19h-.05l-1.2,6.19Z"/><path class="cls-1" d="M184.64,30.49v1.05a3.79,3.79,0,0,1-.3,1.5,4.14,4.14,0,0,1-2.06,2.14,3.62,3.62,0,0,1-1.53.32,5.5,5.5,0,0,1-1.42-.19,3.39,3.39,0,0,1-1.29-.67,3.76,3.76,0,0,1-.95-1.24,4.31,4.31,0,0,1-.37-1.93V22.06A4.2,4.2,0,0,1,177,20.5a3.6,3.6,0,0,1,.81-1.24,3.64,3.64,0,0,1,1.26-.83,4.25,4.25,0,0,1,1.62-.3,3.68,3.68,0,0,1,2.81,1.13,4,4,0,0,1,.83,1.3,4.48,4.48,0,0,1,.3,1.65v1h-2.45v-.82a2,2,0,0,0-.41-1.25,1.32,1.32,0,0,0-1.1-.52,1.23,1.23,0,0,0-1.21.56,3,3,0,0,0-.3,1.43V31.3a2.3,2.3,0,0,0,.32,1.25,1.27,1.27,0,0,0,1.17.51,1.66,1.66,0,0,0,.51-.09,1.62,1.62,0,0,0,.52-.27,1.65,1.65,0,0,0,.36-.53,2.3,2.3,0,0,0,.14-.84v-.84Z"/><path class="cls-1" d="M186.7,35.36V18.27h2.45V35.36Z"/><path class="cls-1" d="M191.38,22.3a4.38,4.38,0,0,1,.36-1.82,3.82,3.82,0,0,1,1-1.32,4.12,4.12,0,0,1,1.31-.77,4.31,4.31,0,0,1,3,0,4.21,4.21,0,0,1,1.33.77,3.9,3.9,0,0,1,.94,1.32,4.38,4.38,0,0,1,.36,1.82v9a4.36,4.36,0,0,1-.36,1.85,3.79,3.79,0,0,1-.94,1.27,4.08,4.08,0,0,1-1.33.79,4.31,4.31,0,0,1-3,0,4,4,0,0,1-1.31-.79,3.71,3.71,0,0,1-1-1.27,4.36,4.36,0,0,1-.36-1.85Zm2.45,9a1.66,1.66,0,0,0,.49,1.31,1.83,1.83,0,0,0,2.33,0,1.63,1.63,0,0,0,.49-1.31v-9a1.6,1.6,0,0,0-.49-1.3,1.83,1.83,0,0,0-2.33,0,1.64,1.64,0,0,0-.49,1.3Zm.1-13.83,2.16-3.38h2.59l-3.17,3.38Z"/><path class="cls-1" d="M201.66,35.36V18.27H204l3.69,10.3h.05V18.27h2.45V35.36h-2.3l-3.75-10.27h-.05V35.36Z"/><path class="cls-1" d="M25.65,53.57V38.18h3.26a3.81,3.81,0,0,1,2.89,1,4.16,4.16,0,0,1,1,2.94v7.2a4.29,4.29,0,0,1-1.05,3.19,4.14,4.14,0,0,1-3,1Zm2.2-13.32V51.49h1A1.64,1.64,0,0,0,30.19,51a2.32,2.32,0,0,0,.38-1.46V42.15a2.36,2.36,0,0,0-.36-1.4,1.58,1.58,0,0,0-1.34-.5Z"/><path class="cls-1" d="M34.85,53.57V38.18h6.57v2.07H37.06v4.52h3.8v2.07h-3.8v4.52h4.36v2.21Z"/><path class="cls-1" d="M42.85,53.57V38.18h2.21V51.36h4.36v2.21Z"/><path class="cls-1" d="M61.87,49.18v1a3.39,3.39,0,0,1-.27,1.35,3.93,3.93,0,0,1-.74,1.14,3.53,3.53,0,0,1-1.12.78,3.16,3.16,0,0,1-1.37.3,4.82,4.82,0,0,1-1.28-.18,2.86,2.86,0,0,1-1.16-.6,3.38,3.38,0,0,1-.86-1.12,4,4,0,0,1-.33-1.74V41.59a3.79,3.79,0,0,1,.26-1.4,3.34,3.34,0,0,1,.73-1.13,3.56,3.56,0,0,1,1.14-.74,3.8,3.8,0,0,1,1.46-.27,3.38,3.38,0,0,1,2.53,1,3.75,3.75,0,0,1,.74,1.18,4,4,0,0,1,.27,1.48v.87h-2.2v-.74a1.8,1.8,0,0,0-.37-1.12,1.19,1.19,0,0,0-1-.48,1.13,1.13,0,0,0-1.1.51,2.74,2.74,0,0,0-.27,1.29v7.86a2,2,0,0,0,.3,1.13,1.14,1.14,0,0,0,1,.45,1.62,1.62,0,0,0,.47-.07,1.48,1.48,0,0,0,.46-.25,1.46,1.46,0,0,0,.33-.48,2,2,0,0,0,.13-.75v-.76Z"/><path class="cls-1" d="M63.73,53.57V38.18h2.21V53.57Z"/><path class="cls-1" d="M75.21,38.18V50.11a3.49,3.49,0,0,1-1,2.53,3.66,3.66,0,0,1-1.15.78,3.54,3.54,0,0,1-1.38.28,3.46,3.46,0,0,1-1.37-.28,3.73,3.73,0,0,1-1.14-.78,3.53,3.53,0,0,1-.77-1.14,3.36,3.36,0,0,1-.29-1.39V38.18h2.21V49.89a1.64,1.64,0,0,0,.39,1.21,1.4,1.4,0,0,0,1.94,0A1.64,1.64,0,0,0,73,49.89V38.18Z"/><path class="cls-1" d="M77.28,53.57V38.18h3.27a3.78,3.78,0,0,1,2.88,1,4.12,4.12,0,0,1,1,2.94v7.2a4.29,4.29,0,0,1-1,3.19,4.17,4.17,0,0,1-3,1Zm2.21-13.32V51.49h1A1.64,1.64,0,0,0,81.82,51a2.25,2.25,0,0,0,.39-1.46V42.15a2.29,2.29,0,0,0-.37-1.4,1.57,1.57,0,0,0-1.34-.5Z"/><path class="cls-1" d="M85.24,53.57l3.43-15.39h1.84L94,53.57H91.74l-.65-3.31h-3l-.65,3.31Zm5.44-5.39L89.6,42.61h0l-1.08,5.57Z"/><path class="cls-1" d="M95,53.57V38.18h3.26a3.81,3.81,0,0,1,2.89,1,4.16,4.16,0,0,1,1,2.94v7.2a4.29,4.29,0,0,1-1,3.19,4.14,4.14,0,0,1-3,1Zm2.2-13.32V51.49h1A1.64,1.64,0,0,0,99.57,51a2.25,2.25,0,0,0,.39-1.46V42.15a2.35,2.35,0,0,0-.37-1.4,1.58,1.58,0,0,0-1.34-.5Z"/><path class="cls-1" d="M103,53.57l3.44-15.39h1.84l3.43,15.39h-2.2l-.65-3.31h-3l-.65,3.31Zm5.45-5.39-1.08-5.57h0l-1.09,5.57Z"/><path class="cls-1" d="M112.69,53.57V38.18h2.12l3.32,9.27h.05V38.18h2.2V53.57h-2.07l-3.38-9.25h0v9.25Z"/><path class="cls-1" d="M122.24,41.81a4,4,0,0,1,.32-1.64,3.43,3.43,0,0,1,.87-1.19,3.34,3.34,0,0,1,1.18-.69,3.85,3.85,0,0,1,1.33-.24,3.9,3.9,0,0,1,1.33.24,3.71,3.71,0,0,1,1.2.69,3.64,3.64,0,0,1,.84,1.19,4,4,0,0,1,.32,1.64v8.13a4,4,0,0,1-.32,1.66,3.68,3.68,0,0,1-.84,1.15,4,4,0,0,1-1.2.71,3.9,3.9,0,0,1-1.33.24,3.85,3.85,0,0,1-1.33-.24,3.54,3.54,0,0,1-1.18-.71,3.47,3.47,0,0,1-.87-1.15,4,4,0,0,1-.32-1.66Zm2.2,8.13a1.44,1.44,0,0,0,.45,1.17,1.63,1.63,0,0,0,2.09,0,1.44,1.44,0,0,0,.45-1.17V41.81a1.46,1.46,0,0,0-.45-1.18,1.63,1.63,0,0,0-2.09,0,1.46,1.46,0,0,0-.45,1.18Z"/><path class="cls-1" d="M137.65,53.57V47.06l-3-8.88H137l1.77,6.11h0l1.78-6.11h2.33l-3,8.88v6.51Z"/><path class="cls-1" d="M147,53.57l3.44-15.39h1.83l3.44,15.39h-2.2l-.65-3.31h-3l-.65,3.31Zm5.45-5.39-1.08-5.57h0l-1.08,5.57Z"/><path class="cls-1" d="M156.8,53.57V38.18H160a4.65,4.65,0,0,1,1.81.32,3.56,3.56,0,0,1,1.22.87,3.34,3.34,0,0,1,.68,1.24,5,5,0,0,1,.2,1.46v.56a5.3,5.3,0,0,1-.09,1.06,2.74,2.74,0,0,1-.3.76,3,3,0,0,1-1.12,1,2.47,2.47,0,0,1,1.15,1.08,4.41,4.41,0,0,1,.36,1.95v.86a4.46,4.46,0,0,1-1,3.12,4.07,4.07,0,0,1-3.15,1.08ZM159,40.25v4.24h1a1.71,1.71,0,0,0,1.48-.55,2.88,2.88,0,0,0,.38-1.61,2.46,2.46,0,0,0-.42-1.56,1.87,1.87,0,0,0-1.53-.52Zm0,6.18v4.93h1a2.3,2.3,0,0,0,1-.19,1.32,1.32,0,0,0,.58-.54,1.92,1.92,0,0,0,.23-.82c0-.32.05-.67.05-1a6.12,6.12,0,0,0-.07-1,1.91,1.91,0,0,0-.25-.73,1.34,1.34,0,0,0-.59-.45,2.85,2.85,0,0,0-1-.14Z"/><path class="cls-1" d="M165.88,41.81a4,4,0,0,1,.32-1.64,3.43,3.43,0,0,1,.87-1.19,3.34,3.34,0,0,1,1.18-.69,3.8,3.8,0,0,1,1.32-.24,3.85,3.85,0,0,1,1.33.24,3.61,3.61,0,0,1,1.2.69,3.52,3.52,0,0,1,.85,1.19,4,4,0,0,1,.32,1.64v8.13A4,4,0,0,1,173,51.6a3.55,3.55,0,0,1-.85,1.15,3.88,3.88,0,0,1-2.53,1,3.8,3.8,0,0,1-1.32-.24,3.54,3.54,0,0,1-1.18-.71,3.47,3.47,0,0,1-.87-1.15,4,4,0,0,1-.32-1.66Zm2.2,8.13a1.44,1.44,0,0,0,.45,1.17,1.63,1.63,0,0,0,2.09,0,1.44,1.44,0,0,0,.45-1.17V41.81a1.46,1.46,0,0,0-.45-1.18,1.63,1.63,0,0,0-2.09,0,1.46,1.46,0,0,0-.45,1.18Z"/><path class="cls-1" d="M175.09,41.81a3.84,3.84,0,0,1,.32-1.64,3.43,3.43,0,0,1,.87-1.19,3.3,3.3,0,0,1,1.17-.69,3.9,3.9,0,0,1,1.33-.24,3.85,3.85,0,0,1,1.33.24,3.61,3.61,0,0,1,1.2.69,3.37,3.37,0,0,1,.84,1.19,3.84,3.84,0,0,1,.33,1.64v.78h-2.21v-.78a1.46,1.46,0,0,0-.44-1.18,1.56,1.56,0,0,0-1.05-.38,1.59,1.59,0,0,0-1.05.38,1.49,1.49,0,0,0-.44,1.18v8.13a1.47,1.47,0,0,0,.44,1.17,1.54,1.54,0,0,0,1.05.38,1.51,1.51,0,0,0,1.05-.38,1.43,1.43,0,0,0,.44-1.17V47h-1.75V45.09h4v4.85a3.84,3.84,0,0,1-.33,1.66,3.39,3.39,0,0,1-.84,1.15,3.88,3.88,0,0,1-2.53,1,3.9,3.9,0,0,1-1.33-.24,3.74,3.74,0,0,1-2-1.86,3.84,3.84,0,0,1-.32-1.66Z"/><path class="cls-1" d="M183.43,53.57l3.44-15.39h1.83l3.44,15.39h-2.21l-.64-3.31h-3l-.65,3.31Zm5.45-5.39-1.09-5.57h0l-1.08,5.57Z"/><path class="cls-1" d="M193.22,53.57V38.18h3.27a3.8,3.8,0,0,1,2.88,1,4.11,4.11,0,0,1,1,2.94v7.2a4.33,4.33,0,0,1-1,3.19,4.17,4.17,0,0,1-3,1Zm2.21-13.32V51.49h1a1.64,1.64,0,0,0,1.32-.46,2.25,2.25,0,0,0,.39-1.46V42.15a2.29,2.29,0,0,0-.37-1.4,1.57,1.57,0,0,0-1.34-.5Z"/><path class="cls-1" d="M202.3,41.81a4,4,0,0,1,.32-1.64,3.43,3.43,0,0,1,.87-1.19,3.34,3.34,0,0,1,1.18-.69,3.8,3.8,0,0,1,1.32-.24,3.85,3.85,0,0,1,1.33.24,3.61,3.61,0,0,1,1.2.69,3.52,3.52,0,0,1,.85,1.19,4,4,0,0,1,.32,1.64v8.13a4,4,0,0,1-.32,1.66,3.55,3.55,0,0,1-.85,1.15,3.88,3.88,0,0,1-2.53,1,3.8,3.8,0,0,1-1.32-.24,3.54,3.54,0,0,1-1.18-.71,3.47,3.47,0,0,1-.87-1.15,4,4,0,0,1-.32-1.66Zm2.2,8.13a1.44,1.44,0,0,0,.45,1.17,1.63,1.63,0,0,0,2.09,0,1.44,1.44,0,0,0,.45-1.17V41.81a1.46,1.46,0,0,0-.45-1.18,1.63,1.63,0,0,0-2.09,0,1.46,1.46,0,0,0-.45,1.18Z"/><polygon class="cls-1" points="66.52 8.08 66.52 0 0 0 0 0.32 8.41 8.08 66.52 8.08"/><polygon class="cls-1" points="0 73.29 66.52 73.29 66.52 65.21 8.37 65.21 8.37 17.17 0 9.45 0 73.29"/></g></g></svg>