<svg xmlns="http://www.w3.org/2000/svg" viewBox="0 0 241.38 73.28"><defs><style>.cls-1{fill:#fff;}.cls-2{fill:#a18328;}.cls-11,.cls-3,.cls-4{fill:#24253f;}.cls-4{font-size:11.78px;font-family:Nunito-Regular, Nunito;}.cls-5{letter-spacing:-0.01em;}.cls-6{letter-spacing:-0.02em;}.cls-7{letter-spacing:-0.08em;}.cls-8{letter-spacing:-0.02em;}.cls-9{letter-spacing:-0.02em;}.cls-10{letter-spacing:0em;}.cls-11{font-size:17.33px;font-family:DINCondensed-Bold, DIN Condensed;font-weight:700;}.cls-12{letter-spacing:-0.01em;}</style></defs><title>logo_v2</title><g id="Layer_2" data-name="Layer 2"><g id="Layer_1-2" data-name="Layer 1"><path class="cls-1" d="M78.41,67.41h-49q-12.49,0-25,0c-.68,0-.86.22-.84.86.05,1.33.06,2.65,0,4,0,.79.17,1.06,1,1,8.59,0,17.18,0,25.77,0h48ZM2.87,36.21H78.48V33.64H81.3V31H0v2.69H2.87Zm55.68-7a9.84,9.84,0,0,0-2.5-4.79c-2.73-3-6.25-4.52-10-5.56a1.12,1.12,0,0,0-.81.15A7.39,7.39,0,0,1,37,19a1.54,1.54,0,0,0-1.06-.17,23.48,23.48,0,0,0-8.44,4.05,11.27,11.27,0,0,0-3.88,6.26ZM41.17,18.66a12.25,12.25,0,0,0,1.46-.15,9.44,9.44,0,0,0,5.3-15.15A8.58,8.58,0,0,0,35,2.54a9.61,9.61,0,0,0-1.45,11.69A8.68,8.68,0,0,0,41.17,18.66ZM26.19,13a7.51,7.51,0,0,0-7.35-7.74A7.56,7.56,0,0,0,11.54,13,7.54,7.54,0,0,0,19,20.65,7.52,7.52,0,0,0,26.19,13Zm36.33,7.66c4,.18,7.39-3.2,7.54-7.56a7.36,7.36,0,1,0-14.7-.4A7.59,7.59,0,0,0,62.52,20.63ZM25.89,21.84c-1-.31-1.73-.59-2.52-.77a1.49,1.49,0,0,0-1,.13,6.09,6.09,0,0,1-6.59,0A1.32,1.32,0,0,0,15,21c-3.32.94-6.43,2.27-8.7,5a6,6,0,0,0-1.48,3h17A12.82,12.82,0,0,1,25.89,21.84Zm30.42-.09c.21.23.31.36.43.48a11.88,11.88,0,0,1,3.73,6.35c.12.61.51.59,1,.59H76.35c.25,0,.5,0,1-.08a24,24,0,0,0-1.51-2.71C73.61,23.44,70.47,22,67,21.09a1.43,1.43,0,0,0-.88.2,6.25,6.25,0,0,1-6.61-.1,1.07,1.07,0,0,0-.72-.22C58,21.18,57.21,21.46,56.31,21.75Z"/><path class="cls-2" d="M6.1,39H75.22V64.68H6.1Zm44,21.15v-18H31.23v18Zm-21.68,0v-18H9.56v18Zm24.51,0H71.75v-18H52.91Z"/><path class="cls-2" d="M78.41,67.41v5.87h-48c-8.59,0-17.18,0-25.77,0-.84,0-1-.26-1-1,0-1.32,0-2.64,0-4,0-.64.16-.86.84-.86q12.48,0,25,0h49Z"/><path class="cls-2" d="M2.87,36.21V33.67H0V31H81.3v2.66H78.48v2.57Z"/><path class="cls-3" d="M58.55,29.18h-35a11.27,11.27,0,0,1,3.88-6.26,23.48,23.48,0,0,1,8.44-4.05A1.54,1.54,0,0,1,37,19,7.39,7.39,0,0,0,45.2,19a1.12,1.12,0,0,1,.81-.15c3.79,1,7.31,2.6,10,5.56A9.84,9.84,0,0,1,58.55,29.18Z"/><path class="cls-3" d="M41.17,18.66a8.68,8.68,0,0,1-7.59-4.43A9.61,9.61,0,0,1,35,2.54a8.58,8.58,0,0,1,12.9.82,9.44,9.44,0,0,1-5.3,15.15A12.25,12.25,0,0,1,41.17,18.66Z"/><path class="cls-3" d="M26.19,13A7.52,7.52,0,0,1,19,20.65,7.54,7.54,0,0,1,11.54,13a7.56,7.56,0,0,1,7.3-7.81A7.51,7.51,0,0,1,26.19,13Z"/><path class="cls-3" d="M62.52,20.63a7.59,7.59,0,0,1-7.16-8,7.36,7.36,0,1,1,14.7.4C69.91,17.43,66.54,20.81,62.52,20.63Z"/><path class="cls-3" d="M25.89,21.84A12.82,12.82,0,0,0,21.73,29h-17a6,6,0,0,1,1.48-3c2.27-2.75,5.38-4.08,8.7-5a1.32,1.32,0,0,1,.79.24,6.09,6.09,0,0,0,6.59,0,1.49,1.49,0,0,1,1-.13C24.16,21.25,24.93,21.53,25.89,21.84Z"/><path class="cls-3" d="M56.31,21.75c.9-.29,1.69-.57,2.5-.78a1.07,1.07,0,0,1,.72.22,6.25,6.25,0,0,0,6.61.1,1.43,1.43,0,0,1,.88-.2c3.45.9,6.59,2.35,8.81,5.28a24,24,0,0,1,1.51,2.71c-.49,0-.74.08-1,.08H61.44c-.46,0-.85,0-1-.59a11.88,11.88,0,0,0-3.73-6.35C56.62,22.11,56.52,22,56.31,21.75Z"/><text class="cls-4" transform="translate(89.23 49.16)"><tspan class="cls-5">P</tspan><tspan x="7.52" y="0">O</tspan><tspan class="cls-6" x="16.52" y="0">R</tspan><tspan class="cls-7" x="24.37" y="0">T</tspan><tspan x="30.44" y="0">AL DE IN</tspan><tspan class="cls-8" x="78.74" y="0">F</tspan><tspan x="85.12" y="0">ORM</tspan><tspan class="cls-9" x="112.12" y="0">A</tspan><tspan class="cls-10" x="120.4" y="0">CION </tspan></text><text class="cls-11" transform="translate(89.23 65.24)">DEL CIU<tspan class="cls-12" x="41.41" y="0">D</tspan><tspan x="48.58" y="0">A</tspan><tspan class="cls-12" x="55.63" y="0">D</tspan><tspan x="62.81" y="0">ANO Y ABOGADO</tspan></text><polygon class="cls-3" points="227.6 36.01 226.52 38.33 228.13 36.36 227.6 36.01"/></g></g></svg>